<svg width="25" height="24" viewBox="0 0 25 24" fill="none" xmlns="http://www.w3.org/2000/svg">
<g clip-path="url(#clip0_2002_1466)">
<mask id="mask0_2002_1466" style="mask-type:alpha" maskUnits="userSpaceOnUse" x="0" y="0" width="25" height="24">
<rect x="0.79657" width="24" height="24" fill="#D9D9D9"/>
</mask>
<g mask="url(#mask0_2002_1466)">
<path d="M1.79663 21.0001L12.7966 2.00012L23.7966 21.0001H1.79663ZM4.67996 19.3335H20.9133L12.7966 5.33345L4.67996 19.3335ZM12.8662 18.0501C13.1032 18.0501 13.3008 17.97 13.4591 17.8097C13.6175 17.6494 13.6966 17.4508 13.6966 17.2139C13.6966 16.9769 13.6165 16.7793 13.4562 16.621C13.2959 16.4626 13.0973 16.3835 12.8604 16.3835C12.6234 16.3835 12.4258 16.4636 12.2675 16.6239C12.1091 16.7842 12.03 16.9828 12.03 17.2197C12.03 17.4567 12.1101 17.6543 12.2704 17.8126C12.4307 17.971 12.6293 18.0501 12.8662 18.0501ZM12.03 15.2001H13.6966V9.80012H12.03V15.2001Z" fill="#1C1B1F"/>
</g>
</g>
<defs>
<clipPath id="clip0_2002_1466">
<rect width="24" height="24" fill="white" transform="translate(0.79657)"/>
</clipPath>
</defs>
</svg>
