<svg width="207" height="44" viewBox="0 0 207 44" fill="none" xmlns="http://www.w3.org/2000/svg">
<g clip-path="url(#clip0_2009_1446)">
<path d="M4.01 10.568H11.03C13.358 10.568 15.38 11.042 17.096 11.99C18.824 12.926 20.168 14.252 21.128 15.968C22.088 17.684 22.568 19.706 22.568 22.034C22.568 24.35 22.088 26.366 21.128 28.082C20.168 29.798 18.824 31.13 17.096 32.078C15.38 33.026 13.358 33.5 11.03 33.5H4.01V10.568ZM7.43 13.646V30.476H11.03C12.662 30.476 14.06 30.11 15.224 29.378C16.4 28.646 17.306 27.644 17.942 26.372C18.578 25.1 18.896 23.654 18.896 22.034C18.896 20.414 18.578 18.974 17.942 17.714C17.306 16.442 16.4 15.446 15.224 14.726C14.06 14.006 12.662 13.646 11.03 13.646H7.43ZM39.0515 33.5L38.6195 29.522V22.304C38.6195 20.888 38.3255 19.862 37.7375 19.226C37.1495 18.578 36.2195 18.254 34.9475 18.254C34.2275 18.254 33.5855 18.362 33.0215 18.578C32.4695 18.782 32.0315 19.094 31.7075 19.514C31.3955 19.934 31.2395 20.462 31.2395 21.098H27.4595C27.4595 19.826 27.7715 18.794 28.3955 18.002C29.0195 17.21 29.8895 16.634 31.0055 16.274C32.1335 15.902 33.4475 15.716 34.9475 15.716C36.3515 15.716 37.5875 15.95 38.6555 16.418C39.7235 16.874 40.5515 17.594 41.1395 18.578C41.7395 19.562 42.0395 20.834 42.0395 22.394V33.5H39.0515ZM33.2555 33.968C31.8035 33.968 30.5975 33.716 29.6375 33.212C28.6775 32.696 27.9575 32.024 27.4775 31.196C27.0095 30.368 26.7755 29.486 26.7755 28.55C26.7755 27.41 27.0635 26.474 27.6395 25.742C28.2275 24.998 29.0375 24.446 30.0695 24.086C31.1015 23.726 32.2895 23.546 33.6335 23.546C34.5575 23.546 35.4575 23.63 36.3335 23.798C37.2095 23.966 38.0735 24.188 38.9255 24.464V26.534C38.2295 26.282 37.4555 26.084 36.6035 25.94C35.7635 25.784 34.9775 25.706 34.2455 25.706C33.1535 25.706 32.2415 25.922 31.5095 26.354C30.7775 26.786 30.4115 27.518 30.4115 28.55C30.4115 29.306 30.6995 29.96 31.2755 30.512C31.8515 31.052 32.7635 31.322 34.0115 31.322C34.9235 31.322 35.7275 31.118 36.4235 30.71C37.1195 30.29 37.6595 29.768 38.0435 29.144C38.4275 28.52 38.6195 27.896 38.6195 27.272H39.4475C39.4475 28.472 39.2015 29.582 38.7095 30.602C38.2295 31.61 37.5275 32.426 36.6035 33.05C35.6795 33.662 34.5635 33.968 33.2555 33.968ZM54.115 33.968C53.131 33.968 52.243 33.782 51.451 33.41C50.659 33.038 50.029 32.48 49.561 31.736C49.105 30.98 48.877 30.032 48.877 28.892V11.468H52.279V28.784C52.279 30.416 53.041 31.232 54.565 31.232C55.033 31.232 55.489 31.184 55.933 31.088C56.377 30.98 56.881 30.824 57.445 30.62L57.931 33.05C57.295 33.314 56.665 33.53 56.041 33.698C55.429 33.878 54.787 33.968 54.115 33.968ZM46.231 18.506V16.184H57.409V18.506H46.231ZM73.2234 33.5L72.7914 29.522V22.304C72.7914 20.888 72.4974 19.862 71.9094 19.226C71.3214 18.578 70.3914 18.254 69.1194 18.254C68.3994 18.254 67.7574 18.362 67.1934 18.578C66.6414 18.782 66.2034 19.094 65.8794 19.514C65.5674 19.934 65.4114 20.462 65.4114 21.098H61.6314C61.6314 19.826 61.9434 18.794 62.5674 18.002C63.1914 17.21 64.0614 16.634 65.1774 16.274C66.3054 15.902 67.6194 15.716 69.1194 15.716C70.5234 15.716 71.7594 15.95 72.8274 16.418C73.8954 16.874 74.7234 17.594 75.3114 18.578C75.9114 19.562 76.2114 20.834 76.2114 22.394V33.5H73.2234ZM67.4274 33.968C65.9754 33.968 64.7694 33.716 63.8094 33.212C62.8494 32.696 62.1294 32.024 61.6494 31.196C61.1814 30.368 60.9474 29.486 60.9474 28.55C60.9474 27.41 61.2354 26.474 61.8114 25.742C62.3994 24.998 63.2094 24.446 64.2414 24.086C65.2734 23.726 66.4614 23.546 67.8054 23.546C68.7294 23.546 69.6294 23.63 70.5054 23.798C71.3814 23.966 72.2454 24.188 73.0974 24.464V26.534C72.4014 26.282 71.6274 26.084 70.7754 25.94C69.9354 25.784 69.1494 25.706 68.4174 25.706C67.3254 25.706 66.4134 25.922 65.6814 26.354C64.9494 26.786 64.5834 27.518 64.5834 28.55C64.5834 29.306 64.8714 29.96 65.4474 30.512C66.0234 31.052 66.9354 31.322 68.1834 31.322C69.0954 31.322 69.8994 31.118 70.5954 30.71C71.2914 30.29 71.8314 29.768 72.2154 29.144C72.5994 28.52 72.7914 27.896 72.7914 27.272H73.6194C73.6194 28.472 73.3734 29.582 72.8814 30.602C72.4014 31.61 71.6994 32.426 70.7754 33.05C69.8514 33.662 68.7354 33.968 67.4274 33.968Z" fill="#17161E"/>
<mask id="mask0_2009_1446" style="mask-type:alpha" maskUnits="userSpaceOnUse" x="86" y="2" width="41" height="40">
<rect x="126.5" y="2" width="40" height="40" transform="rotate(90 126.5 2)" fill="#D9D9D9"/>
</mask>
<g mask="url(#mask0_2009_1446)">
<path d="M102.5 22L110.441 13.5L111.5 14.6333L104.618 22L111.5 29.3667L110.441 30.5L102.5 22Z" fill="#3F3D3D"/>
</g>
<path d="M131.63 15.44H133.41V28.5H131.05V18.26C130.697 18.42 130.35 18.5433 130.01 18.63C129.67 18.7167 129.33 18.76 128.99 18.76V16.5C129.444 16.4533 129.884 16.35 130.31 16.19C130.737 16.0233 131.177 15.7733 131.63 15.44ZM141.165 29.94L146.185 13.88H147.785L142.725 29.94H141.165ZM159.424 28.74C158.418 28.74 157.538 28.4633 156.784 27.91C156.038 27.3567 155.458 26.6067 155.044 25.66C154.631 24.7067 154.424 23.6333 154.424 22.44C154.424 21.0333 154.634 19.83 155.054 18.83C155.474 17.8233 156.074 17.0533 156.854 16.52C157.634 15.9867 158.564 15.72 159.644 15.72C160.391 15.72 161.048 15.8633 161.614 16.15C162.188 16.43 162.644 16.8233 162.984 17.33C163.331 17.8367 163.538 18.4267 163.604 19.1H161.904C161.804 18.5 161.578 18.0233 161.224 17.67C160.871 17.3167 160.358 17.14 159.684 17.14C158.538 17.14 157.638 17.6367 156.984 18.63C156.331 19.6167 156.004 20.9667 156.004 22.68C156.004 22.9267 156.011 23.2133 156.024 23.54C156.038 23.86 156.064 24.16 156.104 24.44C156.164 23.5533 156.368 22.8567 156.714 22.35C157.068 21.8367 157.508 21.4733 158.034 21.26C158.561 21.0467 159.118 20.94 159.704 20.94C160.464 20.94 161.144 21.1067 161.744 21.44C162.351 21.7733 162.828 22.2367 163.174 22.83C163.528 23.4167 163.704 24.0933 163.704 24.86C163.704 25.6333 163.524 26.3133 163.164 26.9C162.804 27.48 162.301 27.9333 161.654 28.26C161.014 28.58 160.271 28.74 159.424 28.74ZM159.424 27.3C160.184 27.3 160.814 27.0767 161.314 26.63C161.814 26.1833 162.064 25.58 162.064 24.82C162.064 24.04 161.814 23.43 161.314 22.99C160.814 22.5433 160.184 22.32 159.424 22.32C158.924 22.32 158.478 22.43 158.084 22.65C157.691 22.8633 157.378 23.16 157.144 23.54C156.918 23.9133 156.804 24.34 156.804 24.82C156.804 25.58 157.054 26.1833 157.554 26.63C158.054 27.0767 158.678 27.3 159.424 27.3Z" fill="black"/>
<mask id="mask1_2009_1446" style="mask-type:alpha" maskUnits="userSpaceOnUse" x="166" y="2" width="41" height="40">
<rect x="166.5" y="42" width="40" height="40" transform="rotate(-90 166.5 42)" fill="#D9D9D9"/>
</mask>
<g mask="url(#mask1_2009_1446)">
<path d="M191.5 22L183.559 30.5L182.5 29.3667L189.382 22L182.5 14.6333L183.559 13.5L191.5 22Z" fill="#3F3D3D"/>
</g>
</g>
<defs>
<clipPath id="clip0_2009_1446">
<rect width="206" height="43" fill="white" transform="translate(0.5 0.5)"/>
</clipPath>
</defs>
</svg>
