<svg width="193" height="53" viewBox="0 0 193 53" fill="none" xmlns="http://www.w3.org/2000/svg">
<g clip-path="url(#clip0_2009_1444)">
<path d="M9.544 26.336C8.088 26.336 6.786 26 5.638 25.328C4.49 24.656 3.58467 23.648 2.922 22.304C2.25933 20.9507 1.928 19.2613 1.928 17.236C1.928 15.1827 2.25933 13.484 2.922 12.14C3.58467 10.7867 4.49 9.77867 5.638 9.116C6.786 8.444 8.088 8.108 9.544 8.108C11 8.108 12.302 8.444 13.45 9.116C14.598 9.788 15.5033 10.8007 16.166 12.154C16.8287 13.5073 17.16 15.2013 17.16 17.236C17.16 19.28 16.8287 20.9787 16.166 22.332C15.5033 23.676 14.598 24.6793 13.45 25.342C12.302 26.0047 11 26.336 9.544 26.336ZM9.544 24.32C11.196 24.32 12.498 23.718 13.45 22.514C14.4113 21.31 14.892 19.5413 14.892 17.208C14.892 14.9213 14.4113 13.162 13.45 11.93C12.498 10.6887 11.196 10.068 9.544 10.068C7.91067 10.068 6.60867 10.6887 5.638 11.93C4.67667 13.1713 4.196 14.94 4.196 17.236C4.196 19.56 4.67667 21.324 5.638 22.528C6.60867 23.7227 7.91067 24.32 9.544 24.32ZM20.0582 26V24.236L27.9542 14.38H20.0582V12.616H30.4182V14.38L22.6342 24.236H30.4182V26H20.0582ZM39.3393 26.336C38.1819 26.336 37.1459 26.042 36.2313 25.454C35.3259 24.8567 34.6073 24.0307 34.0753 22.976C33.5526 21.9213 33.2913 20.708 33.2913 19.336C33.2913 17.8707 33.5526 16.6107 34.0753 15.556C34.5979 14.5013 35.3119 13.694 36.2173 13.134C37.1319 12.5647 38.1726 12.28 39.3393 12.28C40.3566 12.28 41.2246 12.4853 41.9433 12.896C42.6619 13.3067 43.2406 13.862 43.6793 14.562C44.1179 15.262 44.4213 16.0553 44.5893 16.942C44.7666 17.8193 44.8179 18.7293 44.7433 19.672H35.0553V18.328H43.3013L42.6573 18.748C42.6853 18.1973 42.6526 17.6467 42.5593 17.096C42.4753 16.5453 42.3119 16.0413 42.0693 15.584C41.8266 15.1173 41.4859 14.744 41.0473 14.464C40.6086 14.184 40.0486 14.044 39.3673 14.044C38.5086 14.044 37.7899 14.2633 37.2113 14.702C36.6326 15.1407 36.1986 15.7193 35.9093 16.438C35.6199 17.1473 35.4753 17.9173 35.4753 18.748V19.644C35.4753 20.5773 35.6153 21.4127 35.8953 22.15C36.1846 22.8873 36.6139 23.4707 37.1833 23.9C37.7526 24.3293 38.4713 24.544 39.3393 24.544C40.2073 24.544 40.9213 24.334 41.4813 23.914C42.0413 23.494 42.3819 22.8733 42.5033 22.052H44.7713C44.6313 22.9387 44.3139 23.704 43.8193 24.348C43.3246 24.9827 42.6946 25.4727 41.9293 25.818C41.1639 26.1633 40.3006 26.336 39.3393 26.336ZM67.8901 26V18.132C67.8901 16.8533 67.5821 15.8827 66.9661 15.22C66.3594 14.548 65.5381 14.212 64.5021 14.212C63.2888 14.212 62.3601 14.6833 61.7161 15.626C61.0721 16.5593 60.7501 17.852 60.7501 19.504H59.7421C59.7421 18.3 59.8588 17.2453 60.0921 16.34C60.3348 15.4347 60.6848 14.6833 61.1421 14.086C61.5994 13.4793 62.1548 13.0267 62.8081 12.728C63.4614 12.4293 64.2034 12.28 65.0341 12.28C66.0888 12.28 66.9894 12.518 67.7361 12.994C68.4921 13.4607 69.0708 14.1327 69.4721 15.01C69.8734 15.8873 70.0741 16.928 70.0741 18.132V26H67.8901ZM49.0741 26V12.616H50.9501L51.2021 15.304C51.6221 14.3333 52.2101 13.5867 52.9661 13.064C53.7314 12.5413 54.6461 12.28 55.7101 12.28C56.7648 12.28 57.6654 12.518 58.4121 12.994C59.1681 13.4607 59.7468 14.1327 60.1481 15.01C60.5494 15.8873 60.7501 16.928 60.7501 18.132V26H58.5941V18.132C58.5941 16.8533 58.2861 15.8827 57.6701 15.22C57.0634 14.548 56.2328 14.212 55.1781 14.212C54.3754 14.212 53.6801 14.4313 53.0921 14.87C52.5041 15.3087 52.0514 15.9387 51.7341 16.76C51.4168 17.572 51.2581 18.5427 51.2581 19.672V26H49.0741ZM81.3454 26.336C80.3654 26.336 79.5114 26.112 78.7834 25.664C78.0647 25.216 77.5094 24.5627 77.1174 23.704C76.7254 22.836 76.5294 21.7813 76.5294 20.54H77.4534C77.4534 21.3707 77.6261 22.0707 77.9714 22.64C78.3167 23.2093 78.7647 23.6433 79.3154 23.942C79.8754 24.2313 80.4681 24.376 81.0934 24.376C81.7654 24.376 82.4094 24.1847 83.0254 23.802C83.6414 23.41 84.1454 22.836 84.5374 22.08C84.9294 21.324 85.1254 20.3907 85.1254 19.28C85.1254 18.216 84.9434 17.306 84.5794 16.55C84.2247 15.794 83.7441 15.2153 83.1374 14.814C82.5307 14.4127 81.8587 14.212 81.1214 14.212C80.4867 14.212 79.8894 14.366 79.3294 14.674C78.7694 14.982 78.3167 15.4347 77.9714 16.032C77.6261 16.62 77.4534 17.348 77.4534 18.216H76.5294C76.5294 16.9187 76.7441 15.8313 77.1734 14.954C77.6027 14.0673 78.1861 13.4 78.9234 12.952C79.6607 12.504 80.4867 12.28 81.4014 12.28C82.4467 12.28 83.4221 12.56 84.3274 13.12C85.2327 13.68 85.9654 14.4827 86.5254 15.528C87.0854 16.5733 87.3654 17.824 87.3654 19.28C87.3654 20.7547 87.0807 22.0193 86.5114 23.074C85.9514 24.1287 85.2141 24.936 84.2994 25.496C83.3847 26.056 82.4001 26.336 81.3454 26.336ZM75.2694 32.58V12.616H77.0894L77.4534 15.752V32.58H75.2694ZM92.8803 9.452C92.4323 9.452 92.0776 9.326 91.8163 9.074C91.555 8.81267 91.4243 8.472 91.4243 8.052C91.4243 7.64133 91.555 7.31467 91.8163 7.072C92.0776 6.82933 92.4323 6.708 92.8803 6.708C93.3283 6.708 93.683 6.82933 93.9443 7.072C94.2056 7.31467 94.3363 7.64133 94.3363 8.052C94.3363 8.472 94.2056 8.81267 93.9443 9.074C93.683 9.326 93.3283 9.452 92.8803 9.452ZM91.7883 26V12.588H93.9723V26H91.7883ZM104.692 26.336C103.619 26.336 102.615 26.0467 101.682 25.468C100.758 24.8893 100.011 24.0727 99.4422 23.018C98.8728 21.9633 98.5882 20.7173 98.5882 19.28C98.5882 17.8053 98.8728 16.5453 99.4422 15.5C100.011 14.4547 100.758 13.6567 101.682 13.106C102.615 12.5553 103.619 12.28 104.692 12.28C105.448 12.28 106.125 12.3967 106.722 12.63C107.329 12.854 107.856 13.1667 108.304 13.568C108.752 13.9693 109.121 14.4267 109.41 14.94C109.709 15.444 109.928 15.976 110.068 16.536L107.828 16.732C107.595 15.9573 107.203 15.346 106.652 14.898C106.111 14.4407 105.448 14.212 104.664 14.212C104.001 14.212 103.376 14.4033 102.788 14.786C102.209 15.1593 101.738 15.724 101.374 16.48C101.01 17.2267 100.828 18.16 100.828 19.28C100.828 20.316 100.991 21.2167 101.318 21.982C101.654 22.738 102.111 23.326 102.69 23.746C103.269 24.166 103.927 24.376 104.664 24.376C105.7 24.376 106.484 24.124 107.016 23.62C107.557 23.1067 107.828 22.3973 107.828 21.492H110.068C110.068 22.4253 109.849 23.256 109.41 23.984C108.971 24.712 108.346 25.286 107.534 25.706C106.731 26.126 105.784 26.336 104.692 26.336ZM126.698 26.336C125.522 26.336 124.444 26.126 123.464 25.706C122.484 25.2767 121.696 24.6467 121.098 23.816C120.501 22.9853 120.193 21.9587 120.174 20.736H122.302C122.302 21.5573 122.503 22.234 122.904 22.766C123.306 23.2887 123.838 23.6807 124.5 23.942C125.163 24.194 125.886 24.32 126.67 24.32C127.52 24.32 128.257 24.1847 128.882 23.914C129.508 23.6433 129.988 23.2887 130.324 22.85C130.67 22.402 130.842 21.912 130.842 21.38C130.842 20.6333 130.614 20.0313 130.156 19.574C129.699 19.1073 129.022 18.7293 128.126 18.44L125.018 17.348C123.562 16.8253 122.461 16.228 121.714 15.556C120.968 14.884 120.594 13.9413 120.594 12.728C120.594 11.3653 121.117 10.2547 122.162 9.396C123.217 8.53733 124.71 8.108 126.642 8.108C128.434 8.108 129.834 8.52333 130.842 9.354C131.85 10.1753 132.429 11.2813 132.578 12.672H130.422C130.282 11.86 129.9 11.23 129.274 10.782C128.658 10.3247 127.781 10.096 126.642 10.096C125.485 10.096 124.584 10.3527 123.94 10.866C123.296 11.3793 122.974 12.028 122.974 12.812C122.974 13.456 123.175 13.9693 123.576 14.352C123.987 14.7253 124.626 15.0613 125.494 15.36L129.134 16.62C130.394 17.04 131.388 17.628 132.116 18.384C132.854 19.14 133.222 20.12 133.222 21.324C133.222 22.2573 132.97 23.102 132.466 23.858C131.972 24.614 131.239 25.216 130.268 25.664C129.298 26.112 128.108 26.336 126.698 26.336ZM142.112 26.336C141.384 26.336 140.731 26.196 140.152 25.916C139.573 25.636 139.116 25.216 138.78 24.656C138.444 24.096 138.276 23.396 138.276 22.556V8.892H140.432V22.5C140.432 23.8813 141.076 24.572 142.364 24.572C142.747 24.572 143.115 24.53 143.47 24.446C143.834 24.362 144.24 24.236 144.688 24.068L144.996 25.636C144.52 25.8413 144.044 26.0093 143.568 26.14C143.101 26.2707 142.616 26.336 142.112 26.336ZM136.12 14.128V12.616H144.66V14.128H136.12ZM157.623 12.588H159.807V26H157.623V12.588ZM148.131 12.588H150.315V20.932C150.315 22.052 150.586 22.9013 151.127 23.48C151.678 24.0587 152.462 24.348 153.479 24.348C154.319 24.348 155.047 24.124 155.663 23.676C156.289 23.228 156.769 22.612 157.105 21.828C157.451 21.0347 157.623 20.1293 157.623 19.112H158.435C158.435 20.6147 158.216 21.898 157.777 22.962C157.348 24.026 156.737 24.8427 155.943 25.412C155.159 25.972 154.235 26.252 153.171 26.252C152.163 26.252 151.281 26.0653 150.525 25.692C149.769 25.3187 149.181 24.754 148.761 23.998C148.341 23.2327 148.131 22.2667 148.131 21.1V12.588ZM170.264 26.336C169.182 26.336 168.188 26.0467 167.282 25.468C166.377 24.88 165.654 24.0587 165.112 23.004C164.571 21.94 164.3 20.6893 164.3 19.252C164.3 17.824 164.566 16.5873 165.098 15.542C165.63 14.4967 166.335 13.694 167.212 13.134C168.099 12.5647 169.07 12.28 170.124 12.28C171.104 12.28 171.963 12.518 172.7 12.994C173.447 13.47 174.026 14.156 174.436 15.052C174.847 15.948 175.052 17.0307 175.052 18.3H174.212C174.212 17.4133 174.035 16.6667 173.68 16.06C173.335 15.4533 172.882 14.996 172.322 14.688C171.762 14.3707 171.16 14.212 170.516 14.212C169.788 14.212 169.121 14.4173 168.514 14.828C167.917 15.2293 167.436 15.808 167.072 16.564C166.718 17.3107 166.54 18.2067 166.54 19.252C166.54 20.316 166.718 21.2307 167.072 21.996C167.436 22.7613 167.917 23.3493 168.514 23.76C169.121 24.1707 169.788 24.376 170.516 24.376C171.123 24.376 171.706 24.2173 172.266 23.9C172.836 23.5827 173.302 23.1207 173.666 22.514C174.03 21.898 174.212 21.156 174.212 20.288H175.052C175.052 21.5853 174.838 22.6867 174.408 23.592C173.988 24.488 173.414 25.1693 172.686 25.636C171.968 26.1027 171.16 26.336 170.264 26.336ZM174.576 26L174.212 22.864V6.904H176.396V26H174.576ZM179.862 12.616H182.298L186.666 24.096H186.162L189.55 12.616H191.79L186.75 28.688C186.33 30.032 185.77 31.068 185.07 31.796C184.37 32.524 183.474 32.888 182.382 32.888C181.794 32.888 181.234 32.804 180.702 32.636C180.179 32.468 179.638 32.2253 179.078 31.908V29.892C179.573 30.284 180.049 30.564 180.506 30.732C180.973 30.9 181.458 30.984 181.962 30.984C182.522 30.984 182.989 30.8067 183.362 30.452C183.745 30.0973 184.062 29.64 184.314 29.08C184.566 28.5293 184.781 27.9507 184.958 27.344L185.35 26L179.862 12.616Z" fill="black"/>
<path d="M5.252 49.192C4.75067 49.192 4.26533 49.1227 3.796 48.984C3.332 48.84 2.91333 48.632 2.54 48.36C2.172 48.0827 1.88133 47.7413 1.668 47.336C1.45467 46.9307 1.348 46.4613 1.348 45.928H2.628C2.63867 46.3867 2.76133 46.7733 2.996 47.088C3.23067 47.4027 3.54267 47.64 3.932 47.8C4.32667 47.96 4.76667 48.04 5.252 48.04C5.99867 48.04 6.57733 47.8587 6.988 47.496C7.39867 47.1333 7.604 46.68 7.604 46.136C7.604 45.7893 7.51867 45.4827 7.348 45.216C7.17733 44.9493 6.90533 44.7413 6.532 44.592C6.164 44.4373 5.67867 44.36 5.076 44.36H3.94V43.368H4.708C5.48667 43.368 6.1 43.2133 6.548 42.904C6.996 42.5947 7.22 42.168 7.22 41.624C7.22 41.144 7.03867 40.7387 6.676 40.408C6.31333 40.0773 5.796 39.912 5.124 39.912C4.60667 39.912 4.14533 40.0187 3.74 40.232C3.33467 40.44 3.06 40.824 2.916 41.384H1.636C1.72133 40.76 1.924 40.256 2.244 39.872C2.564 39.488 2.96933 39.2107 3.46 39.04C3.95067 38.864 4.49467 38.776 5.092 38.776C5.75867 38.776 6.35333 38.8933 6.876 39.128C7.39867 39.3627 7.80933 39.6853 8.108 40.096C8.412 40.5067 8.564 40.9787 8.564 41.512C8.564 42.04 8.412 42.4933 8.108 42.872C7.80933 43.2453 7.37467 43.5333 6.804 43.736C7.43867 43.9173 7.956 44.216 8.356 44.632C8.76133 45.048 8.964 45.5813 8.964 46.232C8.964 46.808 8.812 47.32 8.508 47.768C8.20933 48.2107 7.78267 48.56 7.228 48.816C6.67333 49.0667 6.01467 49.192 5.252 49.192ZM10.4331 48.256C10.4331 48.0053 10.5211 47.7893 10.6971 47.608C10.8731 47.4267 11.0945 47.336 11.3611 47.336C11.6278 47.336 11.8545 47.4267 12.0411 47.608C12.2278 47.7893 12.3211 48.0053 12.3211 48.256C12.3211 48.5067 12.2278 48.7173 12.0411 48.888C11.8545 49.0587 11.6278 49.144 11.3611 49.144C11.0945 49.144 10.8731 49.0587 10.6971 48.888C10.5211 48.712 10.4331 48.5013 10.4331 48.256ZM15.4685 38.92H16.4765V49H15.2285V40.392C14.9725 40.568 14.7032 40.704 14.4205 40.8C14.1432 40.8907 13.8632 40.9413 13.5805 40.952V39.736C13.9165 39.688 14.2418 39.6 14.5565 39.472C14.8765 39.344 15.1805 39.16 15.4685 38.92ZM22.8458 49.192C22.0564 49.192 21.3658 49 20.7738 48.616C20.1871 48.232 19.7284 47.6533 19.3978 46.88C19.0724 46.1067 18.9098 45.1387 18.9098 43.976C18.9098 42.8133 19.0724 41.848 19.3978 41.08C19.7284 40.3067 20.1871 39.7307 20.7738 39.352C21.3658 38.968 22.0564 38.776 22.8458 38.776C23.6298 38.776 24.3178 38.968 24.9098 39.352C25.5018 39.7307 25.9604 40.3067 26.2858 41.08C26.6164 41.848 26.7818 42.8133 26.7818 43.976C26.7818 45.1387 26.6164 46.1067 26.2858 46.88C25.9604 47.6533 25.5018 48.232 24.9098 48.616C24.3178 49 23.6298 49.192 22.8458 49.192ZM22.8458 48.04C23.7098 48.04 24.3658 47.688 24.8138 46.984C25.2618 46.2747 25.4858 45.272 25.4858 43.976C25.4858 42.68 25.2618 41.68 24.8138 40.976C24.3658 40.2667 23.7098 39.912 22.8458 39.912C21.9924 39.912 21.3391 40.2667 20.8858 40.976C20.4324 41.68 20.2057 42.68 20.2057 43.976C20.2057 45.272 20.4324 46.2747 20.8858 46.984C21.3391 47.688 21.9924 48.04 22.8458 48.04ZM28.0738 48.256C28.0738 48.0053 28.1618 47.7893 28.3378 47.608C28.5138 47.4267 28.7351 47.336 29.0018 47.336C29.2684 47.336 29.4951 47.4267 29.6818 47.608C29.8684 47.7893 29.9618 48.0053 29.9618 48.256C29.9618 48.5067 29.8684 48.7173 29.6818 48.888C29.4951 49.0587 29.2684 49.144 29.0018 49.144C28.7351 49.144 28.5138 49.0587 28.3378 48.888C28.1618 48.712 28.0738 48.5013 28.0738 48.256ZM31.4771 49V47.512C31.4771 46.9307 31.5705 46.4453 31.7571 46.056C31.9491 45.6667 32.2158 45.344 32.5571 45.088C32.9038 44.832 33.3118 44.6107 33.7811 44.424L35.7651 43.64C36.2771 43.432 36.6611 43.1653 36.9171 42.84C37.1731 42.5147 37.3011 42.1093 37.3011 41.624C37.3011 41.112 37.1225 40.6933 36.7651 40.368C36.4131 40.0427 35.9198 39.88 35.2851 39.88C34.6558 39.88 34.1385 40.016 33.7331 40.288C33.3331 40.5547 33.1038 40.9573 33.0451 41.496H31.6531C31.6905 40.9147 31.8611 40.4213 32.1651 40.016C32.4745 39.6107 32.8931 39.304 33.4211 39.096C33.9491 38.8827 34.5651 38.776 35.2691 38.776C35.9145 38.776 36.4931 38.9013 37.0051 39.152C37.5171 39.4027 37.9198 39.7493 38.2131 40.192C38.5118 40.6293 38.6611 41.1333 38.6611 41.704C38.6611 42.2213 38.5651 42.672 38.3731 43.056C38.1811 43.44 37.9065 43.7707 37.5491 44.048C37.1971 44.3253 36.7785 44.5627 36.2931 44.76L34.2611 45.576C33.7491 45.7733 33.3651 46.0107 33.1091 46.288C32.8531 46.5653 32.7251 46.9253 32.7251 47.368V47.848H38.5651V49H31.4771ZM44.4708 49.192C43.6814 49.192 42.9908 49 42.3988 48.616C41.8121 48.232 41.3534 47.6533 41.0228 46.88C40.6974 46.1067 40.5348 45.1387 40.5348 43.976C40.5348 42.8133 40.6974 41.848 41.0228 41.08C41.3534 40.3067 41.8121 39.7307 42.3988 39.352C42.9908 38.968 43.6814 38.776 44.4708 38.776C45.2548 38.776 45.9428 38.968 46.5348 39.352C47.1268 39.7307 47.5854 40.3067 47.9108 41.08C48.2414 41.848 48.4068 42.8133 48.4068 43.976C48.4068 45.1387 48.2414 46.1067 47.9108 46.88C47.5854 47.6533 47.1268 48.232 46.5348 48.616C45.9428 49 45.2548 49.192 44.4708 49.192ZM44.4708 48.04C45.3348 48.04 45.9908 47.688 46.4388 46.984C46.8868 46.2747 47.1108 45.272 47.1108 43.976C47.1108 42.68 46.8868 41.68 46.4388 40.976C45.9908 40.2667 45.3348 39.912 44.4708 39.912C43.6174 39.912 42.9641 40.2667 42.5108 40.976C42.0574 41.68 41.8307 42.68 41.8307 43.976C41.8307 45.272 42.0574 46.2747 42.5108 46.984C42.9641 47.688 43.6174 48.04 44.4708 48.04ZM50.2428 49V47.512C50.2428 46.9307 50.3361 46.4453 50.5228 46.056C50.7148 45.6667 50.9814 45.344 51.3228 45.088C51.6694 44.832 52.0774 44.6107 52.5468 44.424L54.5308 43.64C55.0428 43.432 55.4268 43.1653 55.6828 42.84C55.9388 42.5147 56.0668 42.1093 56.0668 41.624C56.0668 41.112 55.8881 40.6933 55.5308 40.368C55.1788 40.0427 54.6854 39.88 54.0508 39.88C53.4214 39.88 52.9041 40.016 52.4988 40.288C52.0988 40.5547 51.8694 40.9573 51.8108 41.496H50.4188C50.4561 40.9147 50.6268 40.4213 50.9308 40.016C51.2401 39.6107 51.6588 39.304 52.1868 39.096C52.7148 38.8827 53.3308 38.776 54.0348 38.776C54.6801 38.776 55.2588 38.9013 55.7708 39.152C56.2828 39.4027 56.6854 39.7493 56.9788 40.192C57.2774 40.6293 57.4268 41.1333 57.4268 41.704C57.4268 42.2213 57.3308 42.672 57.1388 43.056C56.9468 43.44 56.6721 43.7707 56.3148 44.048C55.9628 44.3253 55.5441 44.5627 55.0588 44.76L53.0268 45.576C52.5148 45.7733 52.1308 46.0107 51.8748 46.288C51.6188 46.5653 51.4908 46.9253 51.4908 47.368V47.848H57.3308V49H50.2428ZM64.1644 38.808H65.3324V45.496H67.0764V46.552H65.3324V49H64.1004V46.552H58.9004V45.592L64.1644 38.808ZM64.1484 40.776L60.3884 45.592H64.1484V40.776ZM71.8268 44.888V43.8H76.1788V44.888H71.8268ZM85.0901 49.192C84.4555 49.192 83.8768 49.0773 83.3541 48.848C82.8315 48.6187 82.4128 48.2827 82.0981 47.84C81.7835 47.392 81.6235 46.8453 81.6181 46.2H82.8661C82.8661 46.808 83.0795 47.2667 83.5061 47.576C83.9381 47.8853 84.4661 48.04 85.0901 48.04C85.8101 48.04 86.3755 47.8213 86.7861 47.384C87.2021 46.9413 87.4101 46.3973 87.4101 45.752C87.4101 44.4613 86.5781 43.816 84.9141 43.816H82.2261L82.6581 38.952H88.2261V40.088H83.6661L83.9221 39.656L83.5861 43.16L83.4261 43.016C83.6821 42.9573 83.9728 42.9173 84.2981 42.896C84.6235 42.8693 84.9141 42.856 85.1701 42.856C86.2581 42.856 87.1195 43.0987 87.7541 43.584C88.3888 44.0693 88.7061 44.792 88.7061 45.752C88.7061 46.4027 88.5595 46.9893 88.2661 47.512C87.9728 48.0293 87.5541 48.44 87.0101 48.744C86.4715 49.0427 85.8315 49.192 85.0901 49.192ZM90.0894 48.256C90.0894 48.0053 90.1774 47.7893 90.3534 47.608C90.5294 47.4267 90.7507 47.336 91.0174 47.336C91.284 47.336 91.5107 47.4267 91.6974 47.608C91.884 47.7893 91.9774 48.0053 91.9774 48.256C91.9774 48.5067 91.884 48.7173 91.6974 48.888C91.5107 49.0587 91.284 49.144 91.0174 49.144C90.7507 49.144 90.5294 49.0587 90.3534 48.888C90.1774 48.712 90.0894 48.5013 90.0894 48.256ZM93.4928 49V47.512C93.4928 46.9307 93.5861 46.4453 93.7728 46.056C93.9648 45.6667 94.2314 45.344 94.5728 45.088C94.9194 44.832 95.3274 44.6107 95.7968 44.424L97.7808 43.64C98.2928 43.432 98.6768 43.1653 98.9328 42.84C99.1888 42.5147 99.3168 42.1093 99.3168 41.624C99.3168 41.112 99.1381 40.6933 98.7808 40.368C98.4288 40.0427 97.9354 39.88 97.3008 39.88C96.6714 39.88 96.1541 40.016 95.7488 40.288C95.3488 40.5547 95.1194 40.9573 95.0608 41.496H93.6688C93.7061 40.9147 93.8768 40.4213 94.1808 40.016C94.4901 39.6107 94.9088 39.304 95.4368 39.096C95.9648 38.8827 96.5808 38.776 97.2848 38.776C97.9301 38.776 98.5088 38.9013 99.0208 39.152C99.5328 39.4027 99.9354 39.7493 100.229 40.192C100.527 40.6293 100.677 41.1333 100.677 41.704C100.677 42.2213 100.581 42.672 100.389 43.056C100.197 43.44 99.9221 43.7707 99.5648 44.048C99.2128 44.3253 98.7941 44.5627 98.3088 44.76L96.2768 45.576C95.7648 45.7733 95.3808 46.0107 95.1248 46.288C94.8688 46.5653 94.7408 46.9253 94.7408 47.368V47.848H100.581V49H93.4928ZM102.214 48.256C102.214 48.0053 102.302 47.7893 102.478 47.608C102.654 47.4267 102.876 47.336 103.142 47.336C103.409 47.336 103.636 47.4267 103.822 47.608C104.009 47.7893 104.102 48.0053 104.102 48.256C104.102 48.5067 104.009 48.7173 103.822 48.888C103.636 49.0587 103.409 49.144 103.142 49.144C102.876 49.144 102.654 49.0587 102.478 48.888C102.302 48.712 102.214 48.5013 102.214 48.256ZM105.618 49V47.512C105.618 46.9307 105.711 46.4453 105.898 46.056C106.09 45.6667 106.356 45.344 106.698 45.088C107.044 44.832 107.452 44.6107 107.922 44.424L109.906 43.64C110.418 43.432 110.802 43.1653 111.058 42.84C111.314 42.5147 111.442 42.1093 111.442 41.624C111.442 41.112 111.263 40.6933 110.906 40.368C110.554 40.0427 110.06 39.88 109.426 39.88C108.796 39.88 108.279 40.016 107.874 40.288C107.474 40.5547 107.244 40.9573 107.186 41.496H105.794C105.831 40.9147 106.002 40.4213 106.306 40.016C106.615 39.6107 107.034 39.304 107.562 39.096C108.09 38.8827 108.706 38.776 109.41 38.776C110.055 38.776 110.634 38.9013 111.146 39.152C111.658 39.4027 112.06 39.7493 112.354 40.192C112.652 40.6293 112.802 41.1333 112.802 41.704C112.802 42.2213 112.706 42.672 112.514 43.056C112.322 43.44 112.047 43.7707 111.69 44.048C111.338 44.3253 110.919 44.5627 110.434 44.76L108.402 45.576C107.89 45.7733 107.506 46.0107 107.25 46.288C106.994 46.5653 106.866 46.9253 106.866 47.368V47.848H112.706V49H105.618ZM118.611 49.192C117.822 49.192 117.131 49 116.539 48.616C115.953 48.232 115.494 47.6533 115.163 46.88C114.838 46.1067 114.675 45.1387 114.675 43.976C114.675 42.8133 114.838 41.848 115.163 41.08C115.494 40.3067 115.953 39.7307 116.539 39.352C117.131 38.968 117.822 38.776 118.611 38.776C119.395 38.776 120.083 38.968 120.675 39.352C121.267 39.7307 121.726 40.3067 122.051 41.08C122.382 41.848 122.547 42.8133 122.547 43.976C122.547 45.1387 122.382 46.1067 122.051 46.88C121.726 47.6533 121.267 48.232 120.675 48.616C120.083 49 119.395 49.192 118.611 49.192ZM118.611 48.04C119.475 48.04 120.131 47.688 120.579 46.984C121.027 46.2747 121.251 45.272 121.251 43.976C121.251 42.68 121.027 41.68 120.579 40.976C120.131 40.2667 119.475 39.912 118.611 39.912C117.758 39.912 117.105 40.2667 116.651 40.976C116.198 41.68 115.971 42.68 115.971 43.976C115.971 45.272 116.198 46.2747 116.651 46.984C117.105 47.688 117.758 48.04 118.611 48.04ZM124.383 49V47.512C124.383 46.9307 124.477 46.4453 124.663 46.056C124.855 45.6667 125.122 45.344 125.463 45.088C125.81 44.832 126.218 44.6107 126.687 44.424L128.671 43.64C129.183 43.432 129.567 43.1653 129.823 42.84C130.079 42.5147 130.207 42.1093 130.207 41.624C130.207 41.112 130.029 40.6933 129.671 40.368C129.319 40.0427 128.826 39.88 128.191 39.88C127.562 39.88 127.045 40.016 126.639 40.288C126.239 40.5547 126.01 40.9573 125.951 41.496H124.559C124.597 40.9147 124.767 40.4213 125.071 40.016C125.381 39.6107 125.799 39.304 126.327 39.096C126.855 38.8827 127.471 38.776 128.175 38.776C128.821 38.776 129.399 38.9013 129.911 39.152C130.423 39.4027 130.826 39.7493 131.119 40.192C131.418 40.6293 131.567 41.1333 131.567 41.704C131.567 42.2213 131.471 42.672 131.279 43.056C131.087 43.44 130.813 43.7707 130.455 44.048C130.103 44.3253 129.685 44.5627 129.199 44.76L127.167 45.576C126.655 45.7733 126.271 46.0107 126.015 46.288C125.759 46.5653 125.631 46.9253 125.631 47.368V47.848H131.471V49H124.383ZM138.305 38.808H139.473V45.496H141.217V46.552H139.473V49H138.241V46.552H133.041V45.592L138.305 38.808ZM138.289 40.776L134.529 45.592H138.289V40.776Z" fill="black"/>
</g>
<defs>
<clipPath id="clip0_2009_1444">
<rect width="192" height="53" fill="white" transform="translate(0.5)"/>
</clipPath>
</defs>
</svg>
